<?xml version="1.0" standalone="no"?><!DOCTYPE svg PUBLIC "-//W3C//DTD SVG 1.1//EN" "http://www.w3.org/Graphics/SVG/1.1/DTD/svg11.dtd"><svg t="1564227230156" class="icon" viewBox="0 0 1024 1024" version="1.1" xmlns="http://www.w3.org/2000/svg" p-id="3620" xmlns:xlink="http://www.w3.org/1999/xlink" width="200" height="200"><defs><style type="text/css"></style></defs><path d="M987.136 147.456l-2.048-30.72-26.624-12.288C948.224 100.352 724.992 0 512 0S75.776 100.352 65.536 104.448l-26.624 14.336-2.048 28.672c0 8.192-8.192 215.04 32.768 405.504l43.008-59.392c-18.432-139.264-20.48-270.336-18.432-331.776 61.44-26.624 266.24-106.496 417.792-106.496 151.552 0 356.352 79.872 419.84 106.496 0 71.68-4.096 278.528-43.008 425.984C833.536 784.384 575.488 933.888 512 962.56c-53.248-22.528-251.904-143.36-337.92-282.624l178.176-188.416 135.168 112.64 241.664-258.048 8.192 141.312 59.392-4.096-12.288-239.616-231.424 10.24 4.096 59.392 118.784-4.096-198.656 202.752-133.12-112.64L100.352 663.552l14.336 30.72c110.592 221.184 368.64 319.488 380.928 325.632l16.384 4.096 16.384-6.144c14.336-4.096 333.824-126.976 411.648-405.504 55.296-200.704 47.104-454.656 47.104-464.896z" p-id="3621" fill="#ffffff"></path></svg>